<svg id="visual" viewBox="0 0 960 540" width="960" height="540" xmlns="http://www.w3.org/2000/svg" xmlns:xlink="http://www.w3.org/1999/xlink" version="1.1"><rect x="0" y="0" width="960" height="540" fill="#B8CBFF"></rect><path d="M0 289L22.8 295.2C45.7 301.3 91.3 313.7 137 301.3C182.7 289 228.3 252 274 241.7C319.7 231.3 365.3 247.7 411.2 261.2C457 274.7 503 285.3 548.8 284C594.7 282.7 640.3 269.3 686 254.7C731.7 240 777.3 224 823 238.5C868.7 253 914.3 298 937.2 320.5L960 343L960 0L937.2 0C914.3 0 868.7 0 823 0C777.3 0 731.7 0 686 0C640.3 0 594.7 0 548.8 0C503 0 457 0 411.2 0C365.3 0 319.7 0 274 0C228.3 0 182.7 0 137 0C91.3 0 45.7 0 22.8 0L0 0Z" fill="#6F81B3" stroke-linecap="round" stroke-linejoin="miter"></path></svg>