<svg id="visual" viewBox="0 0 900 600" width="900" height="600" xmlns="http://www.w3.org/2000/svg" xmlns:xlink="http://www.w3.org/1999/xlink" version="1.1"><path d="M0 404L18.8 401.2C37.7 398.3 75.3 392.7 112.8 394.3C150.3 396 187.7 405 225.2 404.2C262.7 403.3 300.3 392.7 337.8 403.8C375.3 415 412.7 448 450.2 464.5C487.7 481 525.3 481 562.8 457.8C600.3 434.7 637.7 388.3 675.2 370.5C712.7 352.7 750.3 363.3 787.8 375.7C825.3 388 862.7 402 881.3 409L900 416L900 601L881.3 601C862.7 601 825.3 601 787.8 601C750.3 601 712.7 601 675.2 601C637.7 601 600.3 601 562.8 601C525.3 601 487.7 601 450.2 601C412.7 601 375.3 601 337.8 601C300.3 601 262.7 601 225.2 601C187.7 601 150.3 601 112.8 601C75.3 601 37.7 601 18.8 601L0 601Z" fill="#b8cbff"></path><path d="M0 442L18.8 445.5C37.7 449 75.3 456 112.8 448C150.3 440 187.7 417 225.2 411.3C262.7 405.7 300.3 417.3 337.8 425.8C375.3 434.3 412.7 439.7 450.2 431.3C487.7 423 525.3 401 562.8 399.3C600.3 397.7 637.7 416.3 675.2 435.5C712.7 454.7 750.3 474.3 787.8 485.2C825.3 496 862.7 498 881.3 499L900 500L900 601L881.3 601C862.7 601 825.3 601 787.8 601C750.3 601 712.7 601 675.2 601C637.7 601 600.3 601 562.8 601C525.3 601 487.7 601 450.2 601C412.7 601 375.3 601 337.8 601C300.3 601 262.7 601 225.2 601C187.7 601 150.3 601 112.8 601C75.3 601 37.7 601 18.8 601L0 601Z" fill="#a9bcef"></path><path d="M0 421L18.8 421.2C37.7 421.3 75.3 421.7 112.8 429.5C150.3 437.3 187.7 452.7 225.2 451.7C262.7 450.7 300.3 433.3 337.8 427.3C375.3 421.3 412.7 426.7 450.2 438.5C487.7 450.3 525.3 468.7 562.8 469.5C600.3 470.3 637.7 453.7 675.2 439.2C712.7 424.7 750.3 412.3 787.8 412.5C825.3 412.7 862.7 425.3 881.3 431.7L900 438L900 601L881.3 601C862.7 601 825.3 601 787.8 601C750.3 601 712.7 601 675.2 601C637.7 601 600.3 601 562.8 601C525.3 601 487.7 601 450.2 601C412.7 601 375.3 601 337.8 601C300.3 601 262.7 601 225.2 601C187.7 601 150.3 601 112.8 601C75.3 601 37.7 601 18.8 601L0 601Z" fill="#9aace0"></path><path d="M0 466L18.8 474C37.7 482 75.3 498 112.8 503C150.3 508 187.7 502 225.2 498.5C262.7 495 300.3 494 337.8 500.3C375.3 506.7 412.7 520.3 450.2 527.5C487.7 534.7 525.3 535.3 562.8 526.5C600.3 517.7 637.7 499.3 675.2 495.3C712.7 491.3 750.3 501.7 787.8 497.5C825.3 493.3 862.7 474.7 881.3 465.3L900 456L900 601L881.3 601C862.7 601 825.3 601 787.8 601C750.3 601 712.7 601 675.2 601C637.7 601 600.3 601 562.8 601C525.3 601 487.7 601 450.2 601C412.7 601 375.3 601 337.8 601C300.3 601 262.7 601 225.2 601C187.7 601 150.3 601 112.8 601C75.3 601 37.7 601 18.8 601L0 601Z" fill="#8c9ed1"></path><path d="M0 529L18.8 528.2C37.7 527.3 75.3 525.7 112.8 527.8C150.3 530 187.7 536 225.2 528.2C262.7 520.3 300.3 498.7 337.8 503.7C375.3 508.7 412.7 540.3 450.2 549.5C487.7 558.7 525.3 545.3 562.8 536.3C600.3 527.3 637.7 522.7 675.2 515.2C712.7 507.7 750.3 497.3 787.8 504.8C825.3 512.3 862.7 537.7 881.3 550.3L900 563L900 601L881.3 601C862.7 601 825.3 601 787.8 601C750.3 601 712.7 601 675.2 601C637.7 601 600.3 601 562.8 601C525.3 601 487.7 601 450.2 601C412.7 601 375.3 601 337.8 601C300.3 601 262.7 601 225.2 601C187.7 601 150.3 601 112.8 601C75.3 601 37.7 601 18.8 601L0 601Z" fill="#7d8fc2"></path><path d="M0 568L18.8 569.2C37.7 570.3 75.3 572.7 112.8 576.2C150.3 579.7 187.7 584.3 225.2 576C262.7 567.7 300.3 546.3 337.8 536.8C375.3 527.3 412.7 529.7 450.2 534C487.7 538.3 525.3 544.7 562.8 543.5C600.3 542.3 637.7 533.7 675.2 539.2C712.7 544.7 750.3 564.3 787.8 573.2C825.3 582 862.7 580 881.3 579L900 578L900 601L881.3 601C862.7 601 825.3 601 787.8 601C750.3 601 712.7 601 675.2 601C637.7 601 600.3 601 562.8 601C525.3 601 487.7 601 450.2 601C412.7 601 375.3 601 337.8 601C300.3 601 262.7 601 225.2 601C187.7 601 150.3 601 112.8 601C75.3 601 37.7 601 18.8 601L0 601Z" fill="#6f81b3"></path></svg>