<svg id="visual" viewBox="0 0 960 540" width="960" height="540" preserveAspectRatio="none" xmlns="http://www.w3.org/2000/svg" xmlns:xlink="http://www.w3.org/1999/xlink" version="1.1"><path d="M0 111L22.8 114.5C45.7 118 91.3 125 137 140.2C182.7 155.3 228.3 178.7 274 175.3C319.7 172 365.3 142 411.2 133.7C457 125.3 503 138.7 548.8 158C594.7 177.3 640.3 202.7 686 210.3C731.7 218 777.3 208 823 212.2C868.7 216.3 914.3 234.7 937.2 243.8L960 253L960 541L937.2 541C914.3 541 868.7 541 823 541C777.3 541 731.7 541 686 541C640.3 541 594.7 541 548.8 541C503 541 457 541 411.2 541C365.3 541 319.7 541 274 541C228.3 541 182.7 541 137 541C91.3 541 45.7 541 22.8 541L0 541Z" fill="#b8cbff"></path><path d="M0 187L22.8 185.2C45.7 183.3 91.3 179.7 137 185.2C182.7 190.7 228.3 205.3 274 229.3C319.7 253.3 365.3 286.7 411.2 295.5C457 304.3 503 288.7 548.8 285.3C594.7 282 640.3 291 686 293.3C731.7 295.7 777.3 291.3 823 273.3C868.7 255.3 914.3 223.7 937.2 207.8L960 192L960 541L937.2 541C914.3 541 868.7 541 823 541C777.3 541 731.7 541 686 541C640.3 541 594.7 541 548.8 541C503 541 457 541 411.2 541C365.3 541 319.7 541 274 541C228.3 541 182.7 541 137 541C91.3 541 45.7 541 22.8 541L0 541Z" fill="#a5b8eb"></path><path d="M0 342L22.8 345.3C45.7 348.7 91.3 355.3 137 351C182.7 346.7 228.3 331.3 274 312.8C319.7 294.3 365.3 272.7 411.2 272C457 271.3 503 291.7 548.8 292.8C594.7 294 640.3 276 686 272.2C731.7 268.3 777.3 278.7 823 295C868.7 311.3 914.3 333.7 937.2 344.8L960 356L960 541L937.2 541C914.3 541 868.7 541 823 541C777.3 541 731.7 541 686 541C640.3 541 594.7 541 548.8 541C503 541 457 541 411.2 541C365.3 541 319.7 541 274 541C228.3 541 182.7 541 137 541C91.3 541 45.7 541 22.8 541L0 541Z" fill="#93a5d8"></path><path d="M0 340L22.8 350.8C45.7 361.7 91.3 383.3 137 389.2C182.7 395 228.3 385 274 375.8C319.7 366.7 365.3 358.3 411.2 350.8C457 343.3 503 336.7 548.8 349.3C594.7 362 640.3 394 686 411.7C731.7 429.3 777.3 432.7 823 426.3C868.7 420 914.3 404 937.2 396L960 388L960 541L937.2 541C914.3 541 868.7 541 823 541C777.3 541 731.7 541 686 541C640.3 541 594.7 541 548.8 541C503 541 457 541 411.2 541C365.3 541 319.7 541 274 541C228.3 541 182.7 541 137 541C91.3 541 45.7 541 22.8 541L0 541Z" fill="#8193c5"></path><path d="M0 466L22.8 468.5C45.7 471 91.3 476 137 473.7C182.7 471.3 228.3 461.7 274 458.2C319.7 454.7 365.3 457.3 411.2 455.7C457 454 503 448 548.8 444.2C594.7 440.3 640.3 438.7 686 440C731.7 441.3 777.3 445.7 823 446C868.7 446.3 914.3 442.7 937.2 440.8L960 439L960 541L937.2 541C914.3 541 868.7 541 823 541C777.3 541 731.7 541 686 541C640.3 541 594.7 541 548.8 541C503 541 457 541 411.2 541C365.3 541 319.7 541 274 541C228.3 541 182.7 541 137 541C91.3 541 45.7 541 22.8 541L0 541Z" fill="#6f81b3"></path></svg>